<svg width="27" height="27" viewBox="0 0 27 27" fill="none" xmlns="http://www.w3.org/2000/svg">
<path d="M7.66992 13.9492C7.66992 14.0469 7.6862 14.138 7.71875 14.2227C7.75781 14.3008 7.81315 14.3757 7.88477 14.4473L15.6973 21.8691C15.8275 22.0059 15.987 22.0742 16.1758 22.0742C16.2995 22.0742 16.4102 22.0449 16.5078 21.9863C16.612 21.9277 16.6934 21.8464 16.752 21.7422C16.8171 21.6445 16.8496 21.5306 16.8496 21.4004C16.8496 21.2246 16.7845 21.0684 16.6543 20.9316L9.31055 13.9492L16.6543 6.9668C16.7845 6.83008 16.8496 6.67383 16.8496 6.49805C16.8496 6.36784 16.8171 6.25391 16.752 6.15625C16.6934 6.05208 16.612 5.9707 16.5078 5.91211C16.4102 5.85352 16.2995 5.82422 16.1758 5.82422C15.987 5.82422 15.8275 5.88932 15.6973 6.01953L7.88477 13.4512C7.81315 13.5228 7.75781 13.6009 7.71875 13.6855C7.6862 13.7637 7.66992 13.8516 7.66992 13.9492Z" fill="white"/>
</svg>
