<svg width="77" height="77" viewBox="0 0 77 77" fill="none" xmlns="http://www.w3.org/2000/svg">
<path d="M42.2079 64.9892H34.7931V71.2962H42.2079V64.9892Z" fill="white"/>
<path d="M38.5005 34.7157L44.6796 41.0227L38.5005 47.3297L32.3215 41.0227L38.5005 34.7157Z" fill="white"/>
<path d="M38.5005 5.70361L33.5573 13.272H43.4437L38.5005 5.70361Z" fill="white"/>
<path d="M42.2079 53.6367H34.7931V59.9436H42.2079V53.6367Z" fill="white"/>
<path d="M49.6228 56.1595L57.0376 51.1139V61.205L49.6228 56.1595Z" fill="white"/>
<path d="M27.3783 56.1595L19.9635 51.1139V61.205L27.3783 56.1595Z" fill="white"/>
<path d="M43.4437 18.3176H33.5573L38.5005 25.886L43.4437 18.3176Z" fill="white"/>
<path d="M34.7931 27.1473L22.4351 47.3297M42.2079 27.1473L54.566 47.3297M52.0944 62.4664L47.1512 67.512M29.8499 67.512L24.9067 62.4664M38.5005 5.70361L33.5573 13.272H43.4437L38.5005 5.70361ZM43.4437 18.3176H33.5573L38.5005 25.886L43.4437 18.3176ZM38.5005 34.7157L44.6796 41.0227L38.5005 47.3297L32.3215 41.0227L38.5005 34.7157ZM42.2079 53.6367H34.7931V59.9436H42.2079V53.6367ZM42.2079 64.9892H34.7931V71.2962H42.2079V64.9892ZM27.3783 56.1595L19.9635 51.1139V61.205L27.3783 56.1595ZM49.6228 56.1595L57.0376 51.1139V61.205L49.6228 56.1595Z" stroke="white" stroke-width="2.28148" stroke-linecap="round" stroke-linejoin="round"/>
<path fill-rule="evenodd" clip-rule="evenodd" d="M29.58 10.3806C29.7467 10.3277 29.8768 10.3879 29.9545 10.4949C30.0344 10.605 30.056 10.7629 29.9546 10.9181C29.3371 11.8635 28.7316 12.7186 27.8592 13.0843C17.9306 17.2463 10.9549 27.0575 10.9549 38.499C10.9549 44.0771 12.6134 49.2691 15.4643 53.6073C15.592 53.8016 15.6604 54.0244 15.6604 54.2485C15.6604 54.7757 15.3544 55.124 15.001 55.2478C14.6558 55.3686 14.2438 55.2854 13.9617 54.8632C10.8331 50.1812 9.00891 44.5538 9.00891 38.499C9.00891 25.3213 17.6522 14.1611 29.58 10.3806ZM47.0462 10.9181C46.9449 10.7629 46.9664 10.6049 47.0463 10.4949C47.1241 10.3879 47.2542 10.3277 47.4209 10.3806C59.3487 14.1611 67.9919 25.3213 67.9919 38.499C67.9919 44.5538 66.1678 50.1812 63.0392 54.8632C62.757 55.2854 62.3451 55.3686 61.9998 55.2478C61.6464 55.124 61.3404 54.7757 61.3404 54.2485C61.3404 54.0244 61.4089 53.8016 61.5366 53.6073C64.3875 49.2691 66.0459 44.0771 66.0459 38.499C66.0459 27.0575 59.0703 17.2463 49.1416 13.0843C48.2692 12.7186 47.6637 11.8635 47.0462 10.9181Z" fill="white"/>
</svg>
