<svg width="36" height="45" viewBox="0 0 36 45" fill="none" xmlns="http://www.w3.org/2000/svg">
<path d="M17.984 34.632C16.192 34.632 14.528 34.184 12.992 33.288C11.488 32.392 10.272 31.192 9.344 29.688C8.448 28.152 8 26.472 8 24.648C8 22.856 8.448 21.224 9.344 19.752C10.272 18.248 11.488 17.048 12.992 16.152C14.528 15.256 16.192 14.808 17.984 14.808C19.072 14.808 20.112 14.984 21.104 15.336C22.096 15.656 23.04 16.136 23.936 16.776L28.4 11.784L24.608 9.912L32.672 9L32.72 17.112L30.368 13.512L25.808 18.6C26.544 19.496 27.088 20.456 27.44 21.48C27.792 22.472 27.968 23.528 27.968 24.648C27.968 26.472 27.52 28.152 26.624 29.688C25.728 31.192 24.512 32.392 22.976 33.288C21.472 34.184 19.808 34.632 17.984 34.632ZM17.984 32.232C19.36 32.232 20.624 31.896 21.776 31.224C22.928 30.52 23.84 29.592 24.512 28.44C25.216 27.288 25.568 26.024 25.568 24.648C25.568 23.304 25.216 22.072 24.512 20.952C23.84 19.8 22.928 18.888 21.776 18.216C20.624 17.544 19.36 17.208 17.984 17.208C16.608 17.208 15.344 17.544 14.192 18.216C13.04 18.888 12.112 19.8 11.408 20.952C10.736 22.072 10.4 23.304 10.4 24.648C10.4 26.024 10.736 27.288 11.408 28.44C12.112 29.592 13.04 30.52 14.192 31.224C15.344 31.896 16.608 32.232 17.984 32.232Z" fill="white"/>
</svg>
