<svg width="71" height="63" viewBox="0 0 71 63" fill="none" xmlns="http://www.w3.org/2000/svg">
<path d="M60.9938 22.8956C61.7447 22.8956 62.2566 22.3495 62.2566 21.5987V20.5407C62.2566 18.3565 63.2122 17.0938 65.9083 15.2508C69.4576 12.8277 70.9593 10.8141 70.9593 7.57196C70.9593 3.20354 67.0345 0.131996 61.7105 0.131996C56.3865 0.131996 52.9737 3.23767 52.4618 6.75288C52.3935 7.19655 52.3594 7.53783 52.3594 8.04976C52.3594 8.83471 52.9054 9.27838 53.5539 9.27838C54.2023 9.27838 54.6801 8.93709 54.7825 8.35691L54.919 7.87912C55.192 5.11473 57.854 2.45272 61.6081 2.45272C65.6694 2.45272 68.229 4.67106 68.229 7.70848C68.229 10.0633 67.0345 11.5308 63.7241 13.8174C60.8914 15.7969 59.697 17.5716 59.697 20.3701V21.5646C59.697 22.3836 60.2089 22.8956 60.9938 22.8956ZM28.4354 31.2229C35.9095 31.2229 41.7455 24.7726 41.7455 16.4112C41.7455 8.49343 35.8072 1.9408 28.4354 1.9408C21.0979 1.9408 15.0913 8.52755 15.1595 16.4453C15.1595 24.7726 20.9955 31.2229 28.4354 31.2229ZM60.9256 32.0419C62.2907 32.0419 63.4169 30.8816 63.4169 29.5847C63.4169 28.2196 62.3248 27.0933 60.9256 27.0933C59.5263 27.0933 58.4342 28.2196 58.4342 29.5847C58.4342 30.8816 59.5604 32.0419 60.9256 32.0419ZM4.92106 62.0748H51.8475C54.7825 62.0748 56.7278 60.4708 56.7278 58.0818C56.7278 49.3791 45.8409 37.366 28.3672 37.366C10.8935 37.366 0.00658407 49.3791 0.00658407 58.0818C0.00658407 60.4708 1.9519 62.0748 4.92106 62.0748Z" fill="white"/>
</svg>
