<svg width="61" height="64" viewBox="0 0 61 64" fill="none" xmlns="http://www.w3.org/2000/svg">
<path d="M22.063 24.098C24.9924 24.098 27.5963 24.7487 29.8747 26.0501C32.1531 27.3051 33.9201 29.1874 35.1755 31.6973C36.4775 34.1607 37.1284 37.1353 37.1284 40.6212V63.2795H27.3638V41.9458C27.3638 38.8782 26.5966 36.5311 25.0621 34.9043C23.5277 33.2311 21.4353 32.3945 18.7848 32.3945C16.0879 32.3945 13.949 33.2311 12.3681 34.9043C10.8336 36.5311 10.0664 38.8782 10.0664 41.9458V63.2795H0.301758V11.6882H10.0664V29.4663C11.3219 27.7931 12.9958 26.4917 15.0882 25.5621C17.1807 24.5861 19.5056 24.098 22.063 24.098Z" fill="white"/>
<path d="M39.8438 16.6713C39.8438 14.6538 40.2434 12.8645 41.0425 11.3034C41.8658 9.74226 42.9798 8.54139 44.3843 7.70078C45.7888 6.86017 47.3508 6.43986 49.0701 6.43986C50.3778 6.43986 51.6249 6.72807 52.8115 7.30449C53.9981 7.85689 54.9425 8.60143 55.6447 9.53812V0.0632324H60.8028V26.7226H55.6447V23.7685C55.0151 24.7532 54.1312 25.5457 52.9931 26.1462C51.8549 26.7466 50.5352 27.0468 49.0338 27.0468C47.3387 27.0468 45.7888 26.6145 44.3843 25.7499C42.9798 24.8853 41.8658 23.6724 41.0425 22.1113C40.2434 20.5261 39.8438 18.7128 39.8438 16.6713ZM55.6811 16.7434C55.6811 15.5185 55.4389 14.4737 54.9546 13.6091C54.4703 12.7204 53.8164 12.0479 52.9931 11.5916C52.1698 11.1113 51.2859 10.8711 50.3414 10.8711C49.397 10.8711 48.5252 11.0992 47.7261 11.5556C46.927 12.0119 46.2731 12.6844 45.7646 13.573C45.2803 14.4377 45.0381 15.4704 45.0381 16.6713C45.0381 17.8722 45.2803 18.9289 45.7646 19.8416C46.2731 20.7302 46.927 21.4147 47.7261 21.8951C48.5495 22.3754 49.4212 22.6156 50.3414 22.6156C51.2859 22.6156 52.1698 22.3875 52.9931 21.9311C53.8164 21.4508 54.4703 20.7783 54.9546 19.9137C55.4389 19.025 55.6811 17.9682 55.6811 16.7434Z" fill="white"/>
</svg>
