<svg width="36" height="45" viewBox="0 0 36 45" fill="none" xmlns="http://www.w3.org/2000/svg">
<path d="M16.688 40.44V35.256H11.024V33H16.688V28.776C15.056 28.552 13.584 27.976 12.272 27.048C10.96 26.12 9.92 24.936 9.152 23.496C8.384 22.056 8 20.504 8 18.84C8 17.048 8.448 15.416 9.344 13.944C10.272 12.44 11.488 11.24 12.992 10.344C14.528 9.448 16.192 9 17.984 9C19.808 9 21.472 9.448 22.976 10.344C24.512 11.24 25.728 12.44 26.624 13.944C27.52 15.416 27.968 17.048 27.968 18.84C27.968 20.472 27.584 22.008 26.816 23.448C26.048 24.888 25.008 26.088 23.696 27.048C22.416 27.976 20.944 28.552 19.28 28.776V33H24.608V35.256H19.28V40.44H16.688ZM17.984 26.424C19.36 26.424 20.624 26.088 21.776 25.416C22.928 24.712 23.84 23.784 24.512 22.632C25.216 21.48 25.568 20.216 25.568 18.84C25.568 17.496 25.216 16.264 24.512 15.144C23.84 14.024 22.928 13.128 21.776 12.456C20.624 11.752 19.36 11.4 17.984 11.4C16.608 11.4 15.344 11.752 14.192 12.456C13.04 13.128 12.112 14.024 11.408 15.144C10.736 16.264 10.4 17.496 10.4 18.84C10.4 20.216 10.736 21.48 11.408 22.632C12.112 23.784 13.04 24.712 14.192 25.416C15.344 26.088 16.608 26.424 17.984 26.424Z" fill="white"/>
</svg>
