<svg width="36" height="45" viewBox="0 0 36 45" fill="none" xmlns="http://www.w3.org/2000/svg">
<path d="M16.688 40.44V35.256H11.024V33H16.688V28.776C15.056 28.552 13.584 27.976 12.272 27.048C10.96 26.12 9.92 24.936 9.152 23.496C8.384 22.056 8 20.504 8 18.84C8 17.048 8.448 15.416 9.344 13.944C10.272 12.44 11.488 11.24 12.992 10.344C14.528 9.448 16.192 9 17.984 9C19.808 9 21.472 9.448 22.976 10.344C24.512 11.24 25.728 12.44 26.624 13.944C27.52 15.416 27.968 17.048 27.968 18.84C27.968 20.472 27.584 22.008 26.816 23.448C26.048 24.888 25.008 26.088 23.696 27.048C22.416 27.976 20.944 28.552 19.28 28.776V33H24.608V35.256H19.28V40.44H16.688ZM17.984 26.424C19.36 26.424 20.624 26.088 21.776 25.416C22.928 24.712 23.84 23.784 24.512 22.632C25.216 21.48 25.568 20.216 25.568 18.84C25.568 17.496 25.216 16.264 24.512 15.144C23.84 14.024 22.928 13.128 21.776 12.456C20.624 11.752 19.36 11.4 17.984 11.4C16.608 11.4 15.344 11.752 14.192 12.456C13.04 13.128 12.112 14.024 11.408 15.144C10.736 16.264 10.4 17.496 10.4 18.84C10.4 20.216 10.736 21.48 11.408 22.632C12.112 23.784 13.04 24.712 14.192 25.416C15.344 26.088 16.608 26.424 17.984 26.424Z" fill="white"/>
<path d="M17.984 28.632C16.192 28.632 14.528 28.184 12.992 27.288C11.488 26.392 10.272 25.192 9.344 23.688C8.448 22.152 8 20.472 8 18.648C8 16.856 8.448 15.224 9.344 13.752C10.272 12.248 11.488 11.048 12.992 10.152C14.528 9.256 16.192 8.808 17.984 8.808C19.072 8.808 20.112 8.984 21.104 9.336C22.096 9.656 23.04 10.136 23.936 10.776L28.4 5.784L24.608 3.912L32.672 3L32.72 11.112L30.368 7.512L25.808 12.6C26.544 13.496 27.088 14.456 27.44 15.48C27.792 16.472 27.968 17.528 27.968 18.648C27.968 20.472 27.52 22.152 26.624 23.688C25.728 25.192 24.512 26.392 22.976 27.288C21.472 28.184 19.808 28.632 17.984 28.632ZM17.984 26.232C19.36 26.232 20.624 25.896 21.776 25.224C22.928 24.52 23.84 23.592 24.512 22.44C25.216 21.288 25.568 20.024 25.568 18.648C25.568 17.304 25.216 16.072 24.512 14.952C23.84 13.8 22.928 12.888 21.776 12.216C20.624 11.544 19.36 11.208 17.984 11.208C16.608 11.208 15.344 11.544 14.192 12.216C13.04 12.888 12.112 13.8 11.408 14.952C10.736 16.072 10.4 17.304 10.4 18.648C10.4 20.024 10.736 21.288 11.408 22.44C12.112 23.592 13.04 24.52 14.192 25.224C15.344 25.896 16.608 26.232 17.984 26.232Z" fill="white"/>
</svg>
