<svg width="1012" height="1012" viewBox="0 0 1012 1012" fill="none" xmlns="http://www.w3.org/2000/svg">
<path d="M74.436 621.605C51.5874 536.366 54.5295 446.265 82.8902 362.698C111.251 279.13 163.756 205.85 233.766 152.124C303.776 98.3981 388.146 66.6402 476.205 60.8663C564.265 55.0925 652.059 75.5621 728.485 119.686C804.911 163.811 866.535 229.608 905.564 308.757C944.594 387.906 959.276 476.851 947.753 564.344C936.23 651.838 899.02 733.949 840.829 800.293C782.637 866.638 706.079 914.237 620.835 937.069C506.551 967.528 384.852 951.424 282.424 892.287C179.996 833.15 105.2 735.808 74.436 621.605ZM934.285 391.21C911.562 306.374 864.192 230.182 798.165 172.268C732.139 114.355 650.422 77.3215 563.348 65.8516C476.274 54.3818 387.754 68.9905 308.983 107.83C230.211 146.67 164.727 207.997 120.81 284.054C76.8932 360.112 56.5169 447.485 62.2579 535.123C67.9989 622.761 99.5992 706.729 153.063 776.407C206.526 846.086 279.452 898.346 362.617 926.577C445.782 954.809 535.451 957.745 620.284 935.014C733.964 904.425 830.868 829.991 889.735 728.042C948.602 626.094 964.623 504.957 934.285 391.21Z" fill="url(#paint0_radial_5_50)" fill-opacity="0.6"/>
<path d="M981.877 484.169C982.499 483.559 983.207 483.043 983.977 482.637C984.872 483.304 985.802 483.922 986.764 484.489C990.582 486.759 994.981 487.861 999.418 487.661C1000.91 487.505 1002.3 486.789 1003.29 485.656C1003.78 485.067 1004.15 484.386 1004.38 483.652C1004.6 482.918 1004.68 482.146 1004.61 481.382C1004.51 480.28 1004.11 479.228 1003.44 478.347C1004.39 478.093 1005.39 478.221 1006.29 478.113C1007.79 477.978 1009.18 477.258 1010.15 476.108C1010.65 475.522 1011.03 474.842 1011.25 474.107C1011.48 473.372 1011.56 472.598 1011.47 471.833C1011.4 471.009 1011.14 470.211 1010.73 469.494C1010.32 468.776 1009.76 468.155 1009.08 467.673C1009.66 467.114 1010.11 466.441 1010.41 465.698C1010.71 464.955 1010.85 464.158 1010.83 463.357C1010.8 462.556 1010.61 461.769 1010.27 461.045C1009.92 460.321 1009.43 459.677 1008.83 459.153C1009.47 458.485 1009.9 457.638 1010.06 456.722C1010.22 455.805 1010.1 454.863 1009.72 454.016C1009.33 453.169 1008.7 452.457 1007.91 451.972C1007.12 451.487 1006.2 451.252 1005.27 451.297L1002.46 451.52L1002.69 454.323L1005.49 454.101C1005.97 454.068 1006.44 454.226 1006.81 454.541C1007.17 454.855 1007.4 455.301 1007.44 455.781C1007.47 456.262 1007.31 456.736 1007 457.1C1006.68 457.465 1006.24 457.691 1005.76 457.729L982.67 459.511L982.892 462.314L1004.77 460.635C1005.19 460.565 1005.61 460.582 1006.02 460.685C1006.43 460.788 1006.81 460.974 1007.14 461.233C1007.47 461.491 1007.74 461.815 1007.94 462.185C1008.14 462.555 1008.26 462.963 1008.29 463.381C1008.32 463.8 1008.27 464.221 1008.13 464.617C1007.99 465.013 1007.77 465.375 1007.48 465.682C1007.19 465.988 1006.85 466.23 1006.46 466.394C1006.07 466.558 1005.66 466.64 1005.24 466.634L983.549 468.216L983.771 471.02L1005.6 469.311C1006 469.274 1006.39 469.316 1006.77 469.433C1007.15 469.551 1007.5 469.742 1007.81 469.996C1008.12 470.249 1008.37 470.561 1008.55 470.912C1008.74 471.263 1008.85 471.647 1008.89 472.042C1008.93 472.438 1008.9 472.839 1008.78 473.22C1008.66 473.6 1008.46 473.952 1008.2 474.252C1007.69 474.864 1006.95 475.251 1006.16 475.329L998.426 475.902C994.694 476.344 991.006 477.096 987.4 478.152C986.25 478.46 985.222 478.736 984.313 479.288C981.835 477.129 979.779 474.528 978.25 471.618L975.774 472.899C977.309 475.818 979.313 478.465 981.706 480.735C981.046 481.125 980.431 481.585 979.871 482.107C978.865 483.018 978.083 484.15 977.589 485.413C977.094 486.677 976.9 488.038 977.021 489.39L979.825 489.167C979.746 488.242 979.889 487.311 980.24 486.451C980.592 485.591 981.142 484.827 981.847 484.221L981.877 484.169ZM1001.94 481.612C1001.98 482.003 1001.94 482.398 1001.82 482.772C1001.7 483.146 1001.5 483.49 1001.24 483.781C1000.99 484.086 1000.68 484.338 1000.33 484.523C999.975 484.708 999.591 484.822 999.196 484.858C994.861 484.986 990.6 483.719 987.039 481.244C987.45 481.134 987.902 481.013 988.355 480.891C991.78 479.916 995.284 479.243 998.827 478.878C999.618 478.846 1000.39 479.118 1000.99 479.637C1001.59 480.157 1001.96 480.885 1002.04 481.673L1001.94 481.612ZM952.134 741.221L954.78 740.247C954.191 738.46 953.814 736.61 953.655 734.735C953.208 730.71 953.94 726.641 955.763 723.025C957.586 719.409 960.42 716.4 963.922 714.365C965.535 713.335 967.258 712.489 969.06 711.843L968.334 709.131C966.33 709.849 964.408 710.777 962.601 711.9C960.726 713.084 959.003 714.492 957.47 716.094C957.403 712.852 956.255 709.725 954.208 707.21C952.161 704.694 949.333 702.935 946.172 702.211C943.011 701.487 939.698 701.839 936.761 703.213C933.823 704.586 931.428 706.901 929.956 709.791C928.485 712.681 928.021 715.979 928.638 719.163C929.255 722.347 930.918 725.233 933.363 727.364C935.808 729.494 938.894 730.747 942.132 730.923C945.37 731.099 948.575 730.188 951.236 728.336C950.873 730.554 950.797 732.81 951.008 735.048C951.128 737.144 951.506 739.217 952.134 741.221ZM937.559 726.935C935.488 725.894 933.774 724.261 932.632 722.244C931.491 720.227 930.974 717.917 931.148 715.606C931.322 713.295 932.178 711.088 933.607 709.264C935.037 707.44 936.976 706.082 939.179 705.362C941.382 704.641 943.749 704.592 945.98 705.218C948.211 705.845 950.206 707.121 951.711 708.883C953.216 710.645 954.164 712.814 954.435 715.116C954.706 717.417 954.287 719.747 953.232 721.811C951.825 724.561 949.387 726.643 946.451 727.603C943.515 728.563 940.319 728.323 937.559 726.935ZM764.043 912.131L761.748 913.759L756.579 906.467L756.03 905.733L764.025 900.067L765.653 902.361L762.247 904.772C762.893 904.825 763.536 904.918 764.171 905.049C766.83 905.874 769.263 907.303 771.28 909.223C775.717 913.532 779.683 918.302 783.109 923.451C783.577 924.094 784.28 924.526 785.064 924.653C785.849 924.781 786.652 924.595 787.3 924.134C787.943 923.658 788.37 922.945 788.489 922.154C788.607 921.363 788.406 920.556 787.931 919.913L775.215 902.046L777.51 900.418L790.278 918.315C790.487 918.685 790.771 919.006 791.112 919.258C791.454 919.51 791.845 919.688 792.259 919.779C792.674 919.87 793.103 919.872 793.519 919.786C793.934 919.701 794.327 919.528 794.672 919.28C795.016 919.032 795.305 918.714 795.518 918.347C795.732 917.98 795.865 917.573 795.911 917.15C795.956 916.728 795.912 916.302 795.781 915.898C795.65 915.494 795.436 915.122 795.152 914.807L782.436 896.939L784.731 895.312L798.144 914.137C798.28 914.335 798.455 914.504 798.657 914.634C798.859 914.764 799.084 914.853 799.321 914.896C799.557 914.939 799.8 914.935 800.035 914.884C800.27 914.834 800.493 914.737 800.69 914.6C800.888 914.459 801.056 914.28 801.184 914.074C801.312 913.867 801.397 913.638 801.436 913.398C801.474 913.158 801.464 912.913 801.407 912.677C801.349 912.441 801.245 912.219 801.101 912.023L799.484 909.77L801.869 907.986L803.486 910.239C804.04 911.014 804.342 911.942 804.351 912.895C804.359 913.849 804.074 914.781 803.533 915.566C802.992 916.351 802.223 916.951 801.329 917.283C800.436 917.615 799.462 917.664 798.539 917.423C798.266 918.918 797.422 920.25 796.187 921.136C795.498 921.63 794.708 921.966 793.874 922.121C793.04 922.276 792.183 922.246 791.362 922.033C791.297 922.861 791.052 923.666 790.646 924.391C790.239 925.116 789.68 925.743 789.007 926.231C787.835 927.123 786.359 927.519 784.898 927.332C783.367 927.073 781.999 926.221 781.091 924.961C777.8 919.972 773.978 915.355 769.693 911.189C768.009 909.567 765.966 908.364 763.73 907.678C762.872 907.446 761.974 907.401 761.097 907.547L764.319 912.013L764.043 912.131ZM523.688 1011.77L522.477 993.772L525.25 993.601L526.143 1006.8L539.852 991.054L534.123 986.114L535.847 983.67L541.575 988.61L555.085 973.274L557.211 975.127L543.702 990.463L549.43 995.403L547.566 997.488L541.849 992.59L528.14 1008.33L540.644 1007.49L540.856 1010.25L523.688 1011.77ZM299.658 962.256C299.816 964.131 300.194 965.981 300.783 967.769L298.148 968.783C297.475 966.784 297.038 964.713 296.847 962.613C296.437 958.52 297.023 954.389 298.553 950.571L284.982 943.813C282.87 947.337 279.925 950.289 276.406 952.409C274.625 953.548 272.709 954.46 270.703 955.127L269.977 952.414C271.772 951.807 273.49 950.992 275.096 949.985C278.115 948.108 280.657 945.558 282.525 942.533L278.154 940.357L279.412 937.818L283.783 939.994C285.706 934.825 285.832 929.158 284.142 923.909L286.788 922.935C287.439 924.973 287.856 927.078 288.029 929.21C288.427 933.31 287.827 937.445 286.281 941.262L299.893 948.01C302.011 944.483 304.949 941.519 308.458 939.372C310.247 938.21 312.167 937.267 314.18 936.562L314.907 939.274C313.105 939.919 311.381 940.766 309.769 941.796C306.733 943.684 304.179 946.254 302.309 949.301L306.733 951.507L305.464 954.005L301.041 951.799C299.668 955.123 299.123 958.73 299.453 962.311L299.658 962.256ZM32.5755 529.489C33.3158 529.744 33.9304 530.273 34.2929 530.967C34.4736 531.32 34.5785 531.707 34.6012 532.103C34.6238 532.499 34.5636 532.895 34.4244 533.266C34.2977 533.65 34.094 534.005 33.8258 534.307C33.5576 534.61 33.2305 534.855 32.8645 535.027C32.4985 535.2 32.1013 535.296 31.697 535.309C31.2927 535.323 30.8899 535.254 30.5131 535.107L7.93559 527.943C6.38539 527.571 4.75203 527.796 3.36074 528.575C1.96946 529.353 0.922578 530.627 0.428611 532.143C-0.0652893 533.659 0.0299984 535.305 0.695556 536.754C1.36117 538.202 2.54817 539.347 4.02 539.96L17.8215 544.454C16.6998 545.183 15.7658 546.166 15.0952 547.323C14.4246 548.481 14.0362 549.78 13.9619 551.116C13.8875 552.451 14.1291 553.786 14.667 555.011C15.2049 556.235 16.0239 557.316 17.0577 558.165C18.0915 559.014 19.3109 559.607 20.6169 559.897C21.9229 560.186 23.2789 560.164 24.5746 559.831C25.8702 559.498 27.0692 558.864 28.0741 557.982C29.0791 557.099 29.8616 555.991 30.3584 554.749C30.7396 553.664 30.8968 552.512 30.8203 551.364C30.7439 550.216 30.4354 549.096 29.9137 548.07C29.3919 547.045 28.6677 546.136 27.7847 545.399C26.9016 544.661 25.8783 544.11 24.7764 543.78L4.89372 537.303C4.01026 537.014 3.27782 536.386 2.85746 535.557C2.4371 534.728 2.36319 533.766 2.65214 532.882C2.94107 531.999 3.56914 531.266 4.39819 530.846C5.22724 530.425 6.1894 530.352 7.07286 530.64L29.6503 537.805C31.0944 538.276 32.6656 538.16 34.0251 537.483C35.3846 536.805 36.4232 535.621 36.9168 534.184C37.1591 533.48 37.2556 532.734 37.2005 531.992C37.1454 531.249 36.9399 530.526 36.5965 529.865C36.2636 529.184 35.7972 528.577 35.2251 528.079C34.653 527.582 33.9866 527.205 33.2658 526.97L32.5755 529.489ZM27.8111 553.626C27.4476 554.726 26.767 555.693 25.8549 556.407C24.9428 557.121 23.8398 557.549 22.685 557.637C21.5301 557.726 20.3749 557.471 19.3647 556.904C18.3545 556.338 17.5343 555.485 17.0075 554.454C16.4807 553.422 16.2708 552.258 16.4042 551.107C16.5375 549.957 17.0081 548.871 17.7569 547.988C18.5056 547.104 19.4989 546.462 20.6119 546.141C21.7249 545.821 22.9079 545.837 24.0119 546.187C25.501 546.671 26.7371 547.726 27.4494 549.121C28.1616 550.515 28.2917 552.136 27.8111 553.626ZM739.674 66.0097C739.157 67.1716 738.416 68.2198 737.493 69.0943C736.569 69.9689 735.483 70.6524 734.294 71.1059C733.106 71.5593 731.84 71.7735 730.569 71.7364C729.298 71.6993 728.047 71.4116 726.887 70.8896L728.052 68.3312C729.297 68.8903 730.681 69.0669 732.027 68.8386C733.373 68.6102 734.621 67.9872 735.612 67.0486C736.604 66.1099 737.294 64.898 737.596 63.5664C737.898 62.2348 737.797 60.8437 737.307 59.5693C736.817 58.295 735.959 57.1949 734.843 56.4086C733.727 55.6223 732.403 55.1853 731.038 55.1528C729.673 55.1204 728.329 55.4941 727.177 56.2265C726.024 56.959 725.116 58.0171 724.566 59.2668L713.843 83.1941L711.284 82.0297L722.007 58.1023C722.56 56.8667 722.734 55.4951 722.508 54.1606C722.281 52.8261 721.665 51.5885 720.736 50.6042C719.807 49.6198 718.607 48.9328 717.287 48.6298C715.968 48.3269 714.589 48.4215 713.323 48.9019C712.058 49.3822 710.963 50.2267 710.177 51.3287C709.391 52.4307 708.95 53.7409 708.908 55.0938C708.866 56.4467 709.226 57.7817 709.942 58.9303C710.658 60.0788 711.698 60.9894 712.932 61.5472L711.767 64.1056C710.216 63.4168 708.873 62.3333 707.872 60.963C706.87 59.5927 706.246 57.9838 706.061 56.2968C705.876 54.6097 706.137 52.9037 706.818 51.3491C707.498 49.7945 708.575 48.4457 709.94 47.4373C711.305 46.4289 712.911 45.7963 714.597 45.6027C716.283 45.4091 717.99 45.6612 719.549 46.3339C721.107 47.0065 722.461 48.0762 723.476 49.4361C724.492 50.7959 725.133 52.3984 725.335 54.0834C727.076 52.8971 729.156 52.3099 731.261 52.4107C733.365 52.5114 735.38 53.2947 737 54.642C738.62 55.9893 739.757 57.8273 740.239 59.8783C740.722 61.9292 740.524 64.0815 739.674 66.0097ZM461.391 31.825C459.895 31.2548 458.469 30.5134 457.143 29.6156L455.447 31.8321C456.954 32.8554 458.571 33.7074 460.268 34.3723C464.126 35.954 468.299 36.6152 472.458 36.3036C476.811 35.9168 480.961 34.2849 484.412 31.6028C485.999 30.4421 487.408 29.0555 488.595 27.4869C489.758 26.1992 490.5 24.5864 490.721 22.865C490.942 21.1436 490.631 19.3958 489.83 17.8561C489.029 16.3164 487.777 15.0584 486.24 14.2508C484.704 13.4432 482.958 13.1246 481.236 13.3378C480.096 13.4137 478.982 13.7184 477.963 14.2338C476.943 14.7492 476.038 15.4647 475.3 16.3376C474.555 17.1938 473.989 18.1903 473.635 19.2685C473.281 20.3468 473.146 21.4849 473.239 22.6161C473.401 24.6358 474.261 26.5361 475.671 27.9907C477.082 29.4453 478.955 30.3634 480.968 30.5874C478.307 32.2577 475.284 33.2642 472.153 33.5222C468.485 33.8217 464.797 33.3058 461.353 32.0114L461.391 31.825ZM487.864 21.4722C487.963 22.6303 487.716 23.7917 487.154 24.8092C486.592 25.8267 485.741 26.6546 484.708 27.188C483.675 27.7213 482.507 27.9361 481.352 27.8052C480.198 27.6743 479.107 27.2035 478.22 26.4525C477.333 25.7015 476.689 24.7041 476.369 23.5866C476.049 22.4691 476.068 21.2819 476.424 20.1753C476.78 19.0687 477.456 18.0925 478.366 17.3704C479.277 16.6483 480.382 16.2128 481.54 16.1191C482.308 16.0514 483.081 16.1365 483.815 16.3695C484.55 16.6025 485.231 16.9787 485.819 17.4765C486.407 17.9743 486.89 18.5838 487.241 19.2696C487.592 19.9554 487.804 20.7041 487.864 21.4722ZM489.368 4.72801C487.88 3.69237 486.276 2.83601 484.588 2.17675C480.724 0.63 476.559 -0.0163772 472.409 0.286621C468.052 0.658986 463.898 2.29244 460.455 4.98736C458.865 6.19396 457.435 7.59829 456.201 9.16639C454.796 10.8896 454.122 13.0938 454.322 15.3076C454.402 16.4397 454.708 17.5444 455.221 18.5567C455.735 19.569 456.445 20.4683 457.311 21.2018C458.179 21.9532 459.19 22.5213 460.283 22.8718C461.376 23.2223 462.529 23.3481 463.672 23.2414C464.804 23.1615 465.909 22.8559 466.921 22.3426C467.933 21.8293 468.833 21.1187 469.566 20.2526C470.653 19.0764 471.386 17.6175 471.68 16.0435C471.975 14.4696 471.819 12.8444 471.232 11.3548C470.644 9.86527 469.648 8.57179 468.358 7.62308C467.068 6.67436 465.536 6.10892 463.939 5.99173C466.592 4.30444 469.62 3.29649 472.755 3.05695C476.423 2.73713 480.115 3.25371 483.555 4.56779C485.035 5.17199 486.457 5.91157 487.802 6.77712L489.368 4.72801ZM456.92 15.14C456.822 13.9819 457.069 12.8205 457.631 11.803C458.192 10.7855 459.044 9.95759 460.076 9.42424C461.109 8.89089 462.277 8.67608 463.432 8.807C464.587 8.93793 465.677 9.40871 466.564 10.1597C467.451 10.9107 468.095 11.9081 468.415 13.0256C468.735 14.143 468.716 15.3303 468.36 16.4369C468.005 17.5435 467.329 18.5197 466.418 19.2418C465.507 19.9639 464.402 20.3994 463.244 20.4931C461.696 20.6183 460.162 20.1254 458.977 19.1221C457.792 18.1189 457.052 16.6871 456.92 15.14ZM243.566 96.5337C241.639 97.7502 240.014 99.3907 238.817 101.33L232.494 91.7043C231.59 90.3195 230.291 89.2382 228.765 88.6005C227.239 87.9628 225.557 87.7982 223.936 88.128C222.316 88.4578 220.831 89.2668 219.676 90.45C218.521 91.6334 217.748 93.1364 217.457 94.7644C216.716 94.3305 215.868 94.1147 215.011 94.1419C214.153 94.1691 213.32 94.4382 212.609 94.9182C211.59 95.5936 210.88 96.6436 210.631 97.8402C210.383 99.0368 210.617 100.283 211.282 101.308L212.839 103.666L215.155 102.12L213.61 99.8035C213.343 99.396 213.249 98.8993 213.348 98.4224C213.447 97.9456 213.732 97.5278 214.14 97.2609C214.547 96.9941 215.044 96.9 215.521 96.9994C215.997 97.0988 216.415 97.3835 216.682 97.7909L227.824 114.715L230.182 113.158L221 99.2767C220.215 98.0618 219.941 96.5859 220.238 95.1701C220.535 93.7543 221.379 92.513 222.586 91.7162C223.183 91.3215 223.852 91.0484 224.555 90.9124C225.258 90.7765 225.98 90.7803 226.681 90.9238C227.382 91.0673 228.048 91.3476 228.641 91.7486C229.234 92.1496 229.742 92.6636 230.136 93.2611L237.549 104.489C237.256 105.397 237.064 106.335 236.977 107.285C236.646 111.65 237.811 115.998 240.28 119.614L242.597 118.068C240.244 114.811 239.171 110.804 239.58 106.808C240.659 107.592 241.887 108.147 243.188 108.439C244.407 108.699 245.665 108.711 246.888 108.474C248.111 108.237 249.274 107.757 250.307 107.061C250.997 106.604 251.591 106.015 252.053 105.329C252.516 104.643 252.84 103.872 253.005 103.061C253.17 102.25 253.174 101.414 253.016 100.602C252.858 99.7892 252.541 99.0158 252.084 98.3255C251.628 97.6352 251.039 97.0416 250.353 96.5787C249.667 96.1158 248.896 95.7926 248.085 95.6275C247.274 95.4624 246.438 95.4587 245.626 95.6166C244.813 95.7745 244.04 96.0908 243.349 96.5477L243.566 96.5337ZM248.977 104.73C247.699 105.553 246.178 105.912 244.667 105.748C243.155 105.584 241.746 104.906 240.675 103.827C241.658 101.785 243.195 100.06 245.112 98.8504C245.877 98.3919 246.788 98.2437 247.659 98.4363C248.53 98.629 249.294 99.1478 249.794 99.8862C250.305 100.633 250.513 101.547 250.377 102.442C250.241 103.337 249.77 104.147 249.06 104.708L248.977 104.73ZM49.2541 297.652C51.0376 296.538 52.6786 295.211 54.1413 293.7L71.3213 302.09C71.0553 304.173 71.0284 306.278 71.241 308.367C71.4318 310.468 71.8968 312.535 72.6242 314.515L75.2183 313.511C74.6016 311.733 74.21 309.885 74.0525 308.01C73.5874 304.012 74.2409 299.964 75.9404 296.316C77.787 292.702 80.5782 289.656 84.0174 287.501C85.6317 286.473 87.3549 285.627 89.1557 284.979L88.429 282.266C86.415 282.968 84.4936 283.912 82.7072 285.077C80.9732 286.195 79.3561 287.484 77.8801 288.925L60.8155 280.636C61.0833 278.582 61.1175 276.504 60.9177 274.442C60.7479 272.324 60.3211 270.235 59.6468 268.22L57.0006 269.193C57.5966 271.008 57.9815 272.885 58.1474 274.788C58.5694 278.824 57.8965 282.9 56.1993 286.586C54.2577 290.146 51.3817 293.11 47.8808 295.157C46.3 296.184 44.5979 297.01 42.8135 297.616L43.5403 300.329C45.5251 299.638 47.4216 298.715 49.1909 297.581L49.2541 297.652ZM59.9747 283.416L75.6354 291.068C74.7 292.29 73.8856 293.6 73.2037 294.979C72.5507 296.307 72.0381 297.699 71.674 299.133L56.0653 291.511C56.9702 290.353 57.7419 289.097 58.3656 287.767C59.056 286.378 59.5954 284.92 59.9747 283.416ZM906.483 241.59L907.639 234.232L900.396 232.517L901.593 225.149L895.025 223.65L895.671 220.966L904.745 222.939L903.507 230.318L910.791 232.023L909.553 239.402L916.836 241.106L915.258 250.338L912.525 249.837L913.663 243.234L906.483 241.59ZM921.196 238.308L920.07 244.953L922.791 245.412L924.37 236.18L917.086 234.476L918.324 227.097L911.04 225.393L912.29 218.055L903.216 216.081L902.581 218.806L909.149 220.306L907.941 227.633L915.184 229.348L913.986 236.716L921.196 238.308ZM122.39 785.118L102.525 755.204L104.842 753.658L124.706 783.572L122.39 785.118ZM96.8515 759.014L99.2094 757.458L119.073 787.372L116.757 788.918L111.474 781.04C111.362 784.096 110.283 787.039 108.393 789.444C106.504 791.849 103.9 793.594 100.957 794.426C98.0132 795.259 94.8817 795.137 92.0118 794.079C89.142 793.02 86.6818 791.079 84.9845 788.534C83.2778 785.988 82.4241 782.965 82.5467 779.902C82.6692 776.839 83.7617 773.894 85.6662 771.493C87.5708 769.091 90.1892 767.356 93.1435 766.539C96.0979 765.721 99.2355 765.864 102.104 766.945L96.8515 759.014ZM106.722 773.988C105.44 772.074 103.62 770.582 101.491 769.701C99.3623 768.821 97.0202 768.59 94.7606 769.04C92.501 769.489 90.4252 770.598 88.7954 772.227C87.1656 773.855 86.0549 775.93 85.6034 778.189C85.1519 780.448 85.38 782.79 86.2588 784.92C87.1376 787.05 88.6278 788.871 90.541 790.155C92.4544 791.438 94.7051 792.126 97.0089 792.131C99.3128 792.136 101.566 791.458 103.485 790.184C104.778 789.34 105.89 788.248 106.757 786.971C107.624 785.694 108.229 784.258 108.537 782.746C108.845 781.233 108.849 779.675 108.55 778.16C108.25 776.646 107.653 775.207 106.793 773.925L106.722 773.988Z" fill="url(#paint1_radial_5_50)" fill-opacity="0.6"/>
<defs>
<radialGradient id="paint0_radial_5_50" cx="0" cy="0" r="1" gradientUnits="userSpaceOnUse" gradientTransform="translate(507.714 504.799) rotate(165) scale(498.103 496.809)">
<stop stop-color="white" stop-opacity="0"/>
<stop offset="1" stop-color="white" stop-opacity="0.6"/>
</radialGradient>
<radialGradient id="paint1_radial_5_50" cx="0" cy="0" r="1" gradientUnits="userSpaceOnUse" gradientTransform="translate(507.714 504.799) rotate(165) scale(498.103 496.809)">
<stop stop-color="white" stop-opacity="0"/>
<stop offset="1" stop-color="white" stop-opacity="0.6"/>
</radialGradient>
</defs>
</svg>
